<?xml version="1.0" encoding="utf-8"?>
<!-- Generator: Adobe Illustrator 27.0.0, SVG Export Plug-In . SVG Version: 6.00 Build 0)  -->
<svg version="1.1" id="Layer_1" xmlns="http://www.w3.org/2000/svg" xmlns:xlink="http://www.w3.org/1999/xlink" x="0px" y="0px"
	 viewBox="0 0 25.5 15.6" style="enable-background:new 0 0 25.5 15.6;" xml:space="preserve">
<style type="text/css">
	.st0{fill:#0160FD;}
</style>
<path class="st0" d="M20.9,9.2H4.2c-0.8,0-1.5-0.7-1.5-1.5s0.7-1.5,1.5-1.5h16.7c0.8,0,1.5,0.7,1.5,1.5S21.8,9.2,20.9,9.2z"/>
<path class="st0" d="M17.3,12.8c-0.4,0-0.8-0.1-1.1-0.4c-0.6-0.6-0.6-1.5,0-2.1l2.6-2.6l-2.6-2.6c-0.6-0.6-0.6-1.5,0-2.1
	c0.6-0.6,1.5-0.6,2.1,0L22,6.6c0.6,0.6,0.6,1.5,0,2.1l-3.6,3.6C18.1,12.7,17.7,12.8,17.3,12.8z"/>
</svg>
