<?xml version="1.0" encoding="utf-8"?>
<!-- Generator: Adobe Illustrator 27.0.0, SVG Export Plug-In . SVG Version: 6.00 Build 0)  -->
<svg version="1.1" id="Layer_1" xmlns="http://www.w3.org/2000/svg" xmlns:xlink="http://www.w3.org/1999/xlink" x="0px" y="0px"
	 viewBox="0 0 204.1 116.2" style="enable-background:new 0 0 204.1 116.2;" xml:space="preserve">
<style type="text/css">
	.st0{fill:#009B77;}
</style>
<g>
	<g>
		<g>
			<path class="st0" d="M178.2,42c-1.9,0-3.6,0.4-5.3,1c-1.3,0.5-2.8,1.5-4.6,2.8v-3.4h-5.4v32.7h5.4V56.6c0-2.7,0.9-5,2.7-6.9
				c1.8-1.8,4-2.8,6.7-2.8c2.8,0,5,1,6.8,2.9l4.6-2.5C186.4,43.8,182.7,42.1,178.2,42z"/>
			<path class="st0" d="M144.8,41.6c-4.5,0-8.4,1.6-11.8,4.9c-3.3,3.3-4.9,7.2-4.9,12c0,4.7,1.6,8.6,4.9,11.9
				c3.3,3.3,7.1,4.9,11.7,4.9c4.5,0,8.5-1.6,11.8-4.8c1-1,1.9-2.1,2.6-3.3l-3.6-3.5c-0.6,1.2-1.4,2.3-2.4,3.3
				c-2.4,2.3-5.1,3.4-8.4,3.4c-3.2,0-6-1.1-8.3-3.4c-2.3-2.3-3.5-5.1-3.5-8.4c0-3.3,1.2-6.2,3.5-8.5c2.3-2.4,5.1-3.5,8.4-3.5
				c3.3,0,6,1.2,8.4,3.5c1.8,1.7,2.8,3.8,3.3,6c-6.4,0-12.8,0-19.2-0.1v4.2c8,0,16.2,0,24.2,0.1c0.4-5-1.2-10-4.9-13.6
				C153.3,43.2,149.4,41.6,144.8,41.6z"/>
			<path class="st0" d="M112.6,42c-2.3,0-4.6,0.6-6.9,1.8c-2.2,1.2-4.1,2.7-5.5,4.7c-1.3-1.9-2.9-3.5-5-4.7
				c-2.1-1.2-4.3-1.8-6.8-1.8c-1.9,0-3.6,0.4-5.3,1c-1.3,0.5-2.8,1.5-4.6,2.8v-3.4h-5.4L73,75.1h5.4V56.5c0-2.7,0.9-5,2.7-6.9
				c1.8-1.8,4-2.8,6.8-2.8c2.8,0,5,1,6.7,2.8c1.8,1.8,2.6,4.2,2.6,6.9V75h5.2l0.1-18.8c0-2.7,0.9-5,2.8-6.8c1.9-1.8,4.1-2.7,6.9-2.7
				c2.7,0,4.9,1,6.7,2.8c1.8,1.8,2.6,4.2,2.6,6.9V75h5.3l0.1-18.8c0-3.9-1.3-7.3-4.1-10.1C119.9,43.4,116.5,42,112.6,42z"/>
			<path class="st0" d="M63.3,66.9c-2.4,2.3-5.1,3.4-8.4,3.4c-3.2,0-6-1.1-8.3-3.4c-2.3-2.3-3.5-5.1-3.5-8.4c0-3.3,1.2-6.2,3.5-8.5
				c2.3-2.4,5.1-3.5,8.4-3.5s6,1.2,8.4,3.5c2.4,2.4,3.6,5.2,3.5,8.5C66.9,61.9,65.7,64.7,63.3,66.9z M55,41.6
				c-4.5,0-8.4,1.6-11.8,4.9c-3.3,3.3-4.9,7.2-4.9,12c0,4.7,1.6,8.6,4.9,11.9c3.3,3.3,7.1,4.9,11.7,4.9c4.5,0,8.5-1.6,11.8-4.8
				c3.4-3.3,5-7.2,5-11.9c0-4.7-1.6-8.7-5-12C63.5,43.2,59.5,41.6,55,41.6z"/>
			<path class="st0" d="M29.8,41.7c-1.9,0-3.6,0.4-5.3,1c-1.3,0.5-2.8,1.5-4.6,2.8v-3.4h-5.4v32.7h5.4V56.3c0-2.7,0.9-5,2.7-6.9
				c1.8-1.8,4-2.8,6.7-2.8c2.8,0,5,1,6.8,2.9l4.6-2.5C37.9,43.5,34.3,41.8,29.8,41.7z"/>
		</g>
	</g>
</g>
</svg>
